<svg id="Layer_2" data-name="Layer 2" xmlns="http://www.w3.org/2000/svg"
  xmlns:xlink="http://www.w3.org/1999/xlink" viewBox="0 0 50 50">
  <defs>
    <style>
      .cls-1 {
      fill: none;
      }

      .cls-2 {
      fill-rule: evenodd;
      }

      .cls-4 {
      clip-path: url(#clippath);
      }
    </style>
    <clipPath id="clippath">
      <rect class="cls-1" width="50" height="50" />
    </clipPath>
  </defs>
  <g id="Layer_2-2" data-name="Layer 2">
    <g class="cls-4">
      <g>
        <path class="cls-2"
          d="M25,14.58c-5.75,0-10.42,4.66-10.42,10.42s4.66,10.42,10.42,10.42,10.42-4.66,10.42-10.42-4.66-10.42-10.42-10.42ZM18.75,25c0,3.45,2.8,6.25,6.25,6.25s6.25-2.8,6.25-6.25-2.8-6.25-6.25-6.25-6.25,2.8-6.25,6.25Z" />
        <path class="cls-3"
          d="M37.5,10.42c-1.15,0-2.08.93-2.08,2.08s.93,2.08,2.08,2.08,2.08-.93,2.08-2.08-.93-2.08-2.08-2.08Z" />
        <path class="cls-2"
          d="M9.09,0C4.07,0,0,4.07,0,9.09v31.82c0,5.02,4.07,9.09,9.09,9.09h31.82c5.02,0,9.09-4.07,9.09-9.09V9.09c0-5.02-4.07-9.09-9.09-9.09H9.09ZM40.91,4.55H9.09c-2.51,0-4.55,2.04-4.55,4.55v31.82c0,2.51,2.04,4.55,4.55,4.55h31.82c2.51,0,4.55-2.03,4.55-4.55V9.09c0-2.51-2.03-4.55-4.55-4.55Z" />
      </g>
    </g>
  </g>
</svg>
